# AST/ASF file generated using VICON BodyLanguage
# -----------------------------------------------
:version 1.10
:name VICON
:units
  mass 1.0
  length 0.45
  angle deg
:documentation
   .ast/.asf automatically generated from VICON data using
   VICON BodyBuilder and BodyLanguage model FoxedUp or BRILLIANT.MOD
:root
   order TX TY TZ RX RY RZ
   axis XYZ
   position 0 0 0  
   orientation 0 0 0 
:bonedata
  begin
     id 1 
     name lhipjoint
     direction 0.537252 -0.787203 0.302774 
     length 2.29576 
     axis 0 0 0  XYZ
  end
  begin
     id 2 
     name lfemur
     direction 0.34202 -0.939693 0  
     length 7.31114  
     axis 0 0 20  XYZ
    dof rx ry rz
    limits (-160.0 20.0)
           (-70.0 70.0)
           (-60.0 70.0)
  end
  begin
     id 3 
     name ltibia
     direction 0.34202 -0.939693 0   
     length 8.36008   
     axis 0 0 20   XYZ
    dof rx
    limits (-10.0 170.0)
  end
  begin
     id 4 
     name lfoot
     direction 0.0969116 -0.266263 0.959016   
     length 2.16704   
     axis -90 7.62852e-016 20   XYZ
    dof rx rz
    limits (-45.0 90.0)
           (-70.0 20.0)
  end
  begin
     id 5 
     name ltoes
     direction 1.53563e-011 -4.21779e-011 1   
     length 1.08338   
     axis -90 7.62852e-016 20   XYZ
    dof rx
    limits (-90.0 20.0)
  end
  begin
     id 6 
     name rhipjoint
     direction -0.588228 -0.754791 0.290308   
     length 2.39434  
     axis 0 0 0  XYZ 
  end
  begin
     id 7 
     name rfemur
     direction -0.34202 -0.939693 0   
     length 7.45207   
     axis 0 0 -20   XYZ
    dof rx ry rz
    limits (-160.0 20.0)
           (-70.0 70.0)
           (-70.0 60.0)
  end
  begin
     id 8 
     name rtibia
     direction -0.34202 -0.939693 0   
     length 8.03565   
     axis 0 0 -20   XYZ
    dof rx
    limits (-10.0 170.0)
 end
 begin
     id 9 
     name rfoot
     direction -0.107009 -0.294004 0.949795   
     length 2.11509  
     axis -90 -7.62852e-016 -20   XYZ
    dof rx rz
    limits (-45.0 90.0)
           (-20.0 70.0)
  end
  begin
     id 10 
     name rtoes
     direction -1.53533e-011 -4.22004e-011 1   
     length 1.05493   
     axis -90 -7.62852e-016 -20   XYZ
    dof rx
    limits (-90.0 20.0)
  end
  begin
     id 11 
     name lowerback
     direction -0.0115208 0.997969 -0.0626515   
     length 2.03153   
     axis 0 0 0   XYZ
    dof rx ry rz
    limits (-20.0 45.0)
           (-30.0 30.0)
           (-30.0 30.0)
  end
  begin
     id 12 
     name upperback
     direction -0.00423475 0.999974 -0.00583614   
     length 2.03619   
     axis 0 0 0   XYZ
    dof rx ry rz
    limits (-20.0 45.0)
           (-30.0 30.0)
           (-30.0 30.0)
  end
  begin
     id 13 
     name thorax
     direction 0.00289429 0.999728 0.0231573   
     length 2.03921   
     axis 0 0 0   XYZ
    dof rx ry rz
    limits (-20.0 45.0)
           (-30.0 30.0)
           (-30.0 30.0)
  end
  begin
     id 14 
     name lowerneck
     direction 0.0188995 0.987777 0.154721   
     length 1.78836   
     axis 0 0 0   XYZ
    dof rx ry rz
    limits (-20.0 45.0)
           (-30.0 30.0)
           (-30.0 30.0)
  end
  begin
     id 15 
     name upperneck
     direction -0.00612612 0.992995 -0.118   
     length 1.81789   
     axis 0 0 0   XYZ
    dof rx ry rz
    limits (-20.0 45.0)
           (-30.0 30.0)
           (-30.0 30.0)
  end
  begin
     id 16
     name head
     direction -0.00420226 0.998397 -0.0564482  
     length 1.82234  
     axis 0 0 0   XYZ
    dof rx ry rz
    limits (-20.0 45.0)
           (-30.0 30.0)
           (-30.0 30.0)
  end
  begin
     id 17 
     name lclavicle
     direction 0.916488 0.396539 0.0529676  
     length 3.51732  
     axis 0 0 0   XYZ
    dof ry rz
    limits (-20.0 10.0)
           (0.0 20.0)
  end
  begin
     id 18 
     name lhumerus
     direction 1 -4.4896e-011 8.36962e-028   
     length 5.45077   
     axis 180 -30 -90   XYZ
    dof rx ry rz
    limits (-60.0 90.0)
           (-90.0 90.0)
           (-90.0 90.0)
  end
  begin
     id 19
     name lradius
     direction 1 -4.48962e-011 3.01407e-027   
     length 3.05488   
     axis 180 -30 -90   XYZ
    dof rx
    limits (-10.0 170.0)
  end
  begin
     id 20
     name lwrist
     direction 1 -4.49002e-011 4.72961e-027   
     length 1.52744   
     axis -2.72261e-015 90 90   XYZ
    dof ry
    limits (-180.0 0.0)
 end
  begin
     id 21 
     name lhand
     direction 1 -4.4899e-011 9.45681e-027   
     length 0.638818   
     axis -6.0311e-015 90 90   XYZ
    dof rx rz
    limits (-90.0 90.0)
           (-45.0 45.0)
  end
  begin
     id 22 
     name lfingers
     direction 1 -4.48871e-011 1.88632e-026   
     length 0.515032   
     axis -1.20625e-014 90 90   XYZ
    dof rx
    limits (0.0 90.0)
  end
  begin
     id 23
     name lthumb
     direction 0.707107 -6.34964e-011 0.707107   
     length 0.739485   
     axis -90 45 6.32835e-014   XYZ
    dof rx rz
    limits (-45.0 45.0)
           (-45.0 45.0)
  end
  begin
     id 24 
     name rclavicle
     direction -0.949427 0.303202 0.0815894   
     length 3.76167  
     axis 0 0 0   XYZ 
    dof ry rz
    limits (-10.0 20.0)
           (-20.0 0.0)
  end
  begin
     id 25 
     name rhumerus
     direction -1 -4.48971e-011 -6.43969e-018  
     length 4.88702   
     axis 180 30 90   XYZ
    dof rx ry rz
    limits (-90.0 60.0)
           (-90.0 90.0)
           (-90.0 90.0)
  end
  begin
     id 26 
     name rradius
     direction -1 -4.48987e-011 5.46662e-027   
     length 3.22603   
     axis 180 30 90   XYZ
    dof rx
    limits (-10.0 170.0)
  end
  begin
     id 27 
     name rwrist
     direction -1 -4.48956e-011 4.72476e-027   
     length 1.61302   
     axis -2.72261e-015 -90 -90   XYZ
    dof ry
    limits (-180.0 0.0)
  end
  begin
     id 28
     name rhand
     direction -1 -4.4889e-011 9.43571e-027   
     length 0.716293   
     axis -6.0311e-015 -90 -90   XYZ
    dof rx rz
    limits (-90.0 90.0)
           (-45.0 45.0)
  end
  begin
     id 29
     name rfingers
     direction -1 -4.48887e-011 1.88701e-026   
     length 0.577494   
     axis -1.20625e-014 -90 -90   XYZ
    dof rx
    limits (0.0 90.0)
  end
  begin
     id 30
     name rthumb
     direction -0.707107 -6.34825e-011 0.707107   
     length 0.829169   
     axis -90 -45 -6.32835e-014   XYZ
    dof rx rz
    limits (-45.0 45.0)
           (-45.0 45.0)
  end
:hierarchy
  begin
    root lhipjoint rhipjoint lowerback
    lhipjoint lfemur
    lfemur ltibia
    ltibia lfoot
    lfoot ltoes
    rhipjoint rfemur
    rfemur rtibia
    rtibia rfoot
    rfoot rtoes
    lowerback upperback
    upperback thorax
    thorax lowerneck lclavicle rclavicle
    lowerneck upperneck
    upperneck head
    lclavicle lhumerus
    lhumerus lradius
    lradius lwrist
    lwrist lhand lthumb
    lhand lfingers
    rclavicle rhumerus
    rhumerus rradius
    rradius rwrist
    rwrist rhand rthumb
    rhand rfingers
  end

#!OML:ASF F:\VICON\USERDATA\INSTALL\rory3\rory3.ASF
:FULLY-SPECIFIED
:DEGREES
116
root 0.163884 17.988 -0.640544 240.579 105.169 212.604
lowerback 11.5907 -1.19874 5.43557
upperback 5.08611 -0.728332 2.75781
thorax -1.21025 -0.228346 -0.101606
lowerneck -12.0457 -13.3897 -7.8921
upperneck 16.6201 -19.694 15.6255
head 9.66319 -8.31656 3.93288
rclavicle -1.59028e-014 6.36111e-014
rhumerus -20.2644 -3.43242 -66.7515
rradius 79.8293
rwrist -177.519
rhand -25.648 -7.14293
rfingers 7.12502
rthumb 0.885743 -37.1208
lclavicle -1.59028e-014 6.36111e-014
lhumerus -42.9075 -20.1979 87.3977
lradius 72.4903
lwrist 14.2299
lhand -9.15678 26.7976
lfingers 7.12502
lthumb 16.7955 56.0912
rfemur -50.1934 -9.17045 8.11613
rtibia 33.1771
rfoot -10.3461 4.34315
rtoes -16.4969
lfemur -47.2377 18.3993 -40.3024
ltibia 33.3431
lfoot -15.1052 -8.4589
ltoes -16.3041
117
root 0.140801 17.9562 -0.643389 240.528 105.452 212.225
lowerback 11.9789 -1.17183 5.44709
upperback 5.15386 -0.657653 2.78089
thorax -1.34692 -0.192671 -0.0883524
lowerneck -12.2002 -13.3639 -7.84769
upperneck 16.2976 -19.628 15.6608
head 9.57057 -8.29448 3.93956
rclavicle -1.43125e-014 -3.18055e-015
rhumerus -19.8014 -3.3585 -66.6501
rradius 80.1178
rwrist -177.573
rhand -25.7668 -7.01959
rfingers 7.12502
rthumb 0.770959 -36.9979
lclavicle -1.43125e-014 -3.18055e-015
lhumerus -42.8984 -20.3282 87.3063
lradius 73.2394
lwrist 14.4963
lhand -9.48006 26.9903
lfingers 7.12502
lthumb 16.4843 56.31
rfemur -51.0985 -9.22272 8.10465
rtibia 33.8046
rfoot -10.3929 4.58928
rtoes -16.2185
lfemur -48.137 18.592 -40.727
ltibia 33.9701
lfoot -15.2 -8.70757
ltoes -16.1256
118
root 0.11951 17.9263 -0.647466 240.413 105.719 211.843
lowerback 12.4174 -1.17814 5.48576
upperback 5.24587 -0.623589 2.78353
thorax -1.48684 -0.173721 -0.106681
lowerneck -12.3447 -13.3136 -7.77593
upperneck 15.9561 -19.5358 15.721
head 9.46682 -8.2581 3.95604
rclavicle 3.02153e-014 -4.77083e-015
rhumerus -19.2968 -3.25731 -66.5893
rradius 80.3059
rwrist -177.711
rhand -25.7116 -7.23096
rfingers 7.12502
rthumb 0.824331 -37.2091
lclavicle 3.02153e-014 -4.77083e-015
lhumerus -42.8935 -20.3002 87.1616
lradius 74.0014
lwrist 14.5866
lhand -9.90715 26.8614
lfingers 7.12502
lthumb 16.0731 56.2148
rfemur -51.9252 -9.28981 8.10647
rtibia 34.4425
rfoot -10.4808 4.87021
rtoes -16.159
lfemur -48.9609 18.7962 -41.103
ltibia 34.5981
lfoot -15.2604 -9.03732
ltoes -15.2915
119
root 0.0967755 17.8951 -0.654981 239.79 105.895 211.03
lowerback 12.9924 -1.18216 5.6923
upperback 5.35095 -0.551899 2.81291
thorax -1.68481 -0.134197 -0.195014
lowerneck -12.5 -13.2737 -7.7131
upperneck 15.6261 -19.4581 15.7838
head 9.37259 -8.22735 3.97157
rclavicle 3.33958e-014 -6.20208e-014
rhumerus -18.7765 -3.2147 -66.5221
rradius 80.4401
rwrist -177.963
rhand -25.5918 -7.71506
rfingers 7.12502
rthumb 0.940035 -37.6927
lclavicle 3.33958e-014 -6.20208e-014
lhumerus -42.9067 -20.2186 86.9954
lradius 74.8442
lwrist 14.5904
lhand -10.0098 26.8237
lfingers 7.12502
lthumb 15.9742 56.1851
rfemur -52.6867 -9.31955 8.27646
rtibia 35.1103
rfoot -10.5567 5.20753
rtoes -16.0172
lfemur -49.7207 19.0924 -41.3209
ltibia 35.2188
lfoot -15.2517 -9.35017
ltoes -13.8931
120
root 0.0738979 17.8646 -0.658475 238.794 105.98 209.875
lowerback 13.6413 -1.17872 5.92829
upperback 5.43995 -0.452739 2.91663
thorax -1.93615 -0.0824471 -0.226219
lowerneck -12.6543 -13.2218 -7.66161
upperneck 15.356 -19.3528 15.7646
head 9.28657 -8.18826 3.96663
rclavicle 2.8625e-014 -6.36111e-015
rhumerus -18.2761 -3.1403 -66.4355
rradius 80.5595
rwrist -178.106
rhand -25.4627 -8.20877
rfingers 7.12502
rthumb 1.06466 -38.1859
lclavicle 2.8625e-014 -6.36111e-015
lhumerus -42.9635 -20.1397 86.8555
lradius 75.699
lwrist 14.6433
lhand -9.96771 26.8167
lfingers 7.12502
lthumb 16.0147 56.1747
rfemur -53.429 -9.22835 8.57199
rtibia 35.8425
rfoot -10.6621 5.48739
rtoes -16.2185
lfemur -50.4336 19.3442 -41.3305
ltibia 35.8467
lfoot -15.3653 -9.39722
ltoes -13.8315
121
root 0.0529671 17.8291 -0.655963 239.127 106.489 209.94
lowerback 14.1157 -1.11403 5.58231
upperback 5.48032 -0.373282 2.88507
thorax -2.1448 -0.0490946 -0.0733799
lowerneck -12.7849 -13.1796 -7.55364
upperneck 15.082 -19.265 15.7146
head 9.18802 -8.15826 3.94203
rclavicle -9.54166e-015 8.5875e-014
rhumerus -17.8528 -3.05667 -66.348
rradius 80.7853
rwrist -178.129
rhand -25.2335 -8.48762
rfingers 7.12502
rthumb 1.28609 -38.4635
lclavicle -9.54166e-015 8.5875e-014
lhumerus -42.994 -20.1531 86.7072
lradius 76.542
lwrist 14.7799
lhand -9.97438 26.7591
lfingers 7.12502
lthumb 16.0083 56.1177
rfemur -54.3766 -9.21793 8.27973
rtibia 36.6325
rfoot -10.8012 5.69936
rtoes -16.4564
lfemur -51.2792 19.5414 -41.9854
ltibia 36.5056
lfoot -15.4191 -9.61748
ltoes -12.8771
122
root 0.030083 17.7838 -0.650806 240.143 107.156 210.548
lowerback 14.4054 -1.04095 5.00965
upperback 5.50119 -0.337978 2.78151
thorax -2.27686 -0.0392933 0.135967
lowerneck -12.8799 -13.1338 -7.45808
upperneck 14.7482 -19.1762 15.7316
head 9.0724 -8.12816 3.94382
rclavicle -7.95139e-015 -1.59028e-014
rhumerus -17.4176 -2.99145 -66.3002
rradius 81.0912
rwrist -178.273
rhand -25.1466 -8.59625
rfingers 7.12502
rthumb 1.36996 -38.5716
lclavicle -7.95139e-015 -1.59028e-014
lhumerus -42.9462 -20.2052 86.5233
lradius 77.3705
lwrist 14.9751
lhand -9.96002 26.8711
lfingers 7.12502
lthumb 16.0221 56.2286
rfemur -55.5291 -9.30046 7.75699
rtibia 37.4409
rfoot -10.9163 5.83041
rtoes -16.5964
lfemur -52.3393 19.7008 -43.0025
ltibia 37.2137
lfoot -15.4839 -9.94784
ltoes -12.0527
